<svg width="24" height="24" viewBox="0 0 24 24" fill="none" xmlns="http://www.w3.org/2000/svg">
<g id="icon/24Px/Solid/arrow down">
<path id="Vector" d="M12 7.99972C12.2337 7.99927 12.4601 8.08064 12.64 8.22972L18.64 13.2297C18.8442 13.3995 18.9727 13.6434 18.9971 13.9078C19.0214 14.1722 18.9398 14.4355 18.77 14.6397C18.6003 14.8439 18.3564 14.9724 18.092 14.9967C17.8275 15.0211 17.5642 14.9395 17.36 14.7697L12 10.2897L6.64003 14.6097C6.53774 14.6928 6.42004 14.7548 6.29371 14.7923C6.16737 14.8297 6.03488 14.8418 5.90385 14.8278C5.77282 14.8139 5.64584 14.7742 5.5302 14.711C5.41456 14.6479 5.31255 14.5624 5.23003 14.4597C5.13845 14.3569 5.06909 14.2363 5.0263 14.1054C4.98351 13.9745 4.9682 13.8362 4.98135 13.6992C4.99449 13.5621 5.03579 13.4292 5.10268 13.3089C5.16956 13.1885 5.26058 13.0833 5.37003 12.9997L11.37 8.16972C11.5551 8.04421 11.7769 7.98435 12 7.99972Z" fill="white"/>
</g>
</svg>
