<svg width="98" height="59" viewBox="0 0 98 59" fill="none" xmlns="http://www.w3.org/2000/svg">
<g id="icon/solid/bed">
<path id="icon/solid/bed_2" d="M26.95 29.5C33.7043 29.5 39.2 23.9857 39.2 17.2083C39.2 10.431 33.7043 4.91667 26.95 4.91667C20.1957 4.91667 14.7 10.431 14.7 17.2083C14.7 23.9857 20.1957 29.5 26.95 29.5ZM80.85 9.83333H46.55C45.1964 9.83333 44.1 10.9334 44.1 12.2917V34.4167H9.8V2.45833C9.8 1.1001 8.70362 0 7.35 0H2.45C1.09637 0 0 1.1001 0 2.45833V56.5417C0 57.8999 1.09637 59 2.45 59H7.35C8.70362 59 9.8 57.8999 9.8 56.5417V49.1667H88.2V56.5417C88.2 57.8999 89.2964 59 90.65 59H95.55C96.9036 59 98 57.8999 98 56.5417V27.0417C98 17.5371 90.3223 9.83333 80.85 9.83333Z" fill="white"/>
</g>
</svg>
