<svg width="21" height="20" viewBox="0 0 21 20" fill="none" xmlns="http://www.w3.org/2000/svg">
<g id="Group">
<path id="Vector" d="M10.8121 0C8.83433 0 6.90093 0.58649 5.25644 1.6853C3.61194 2.78412 2.33022 4.3459 1.57334 6.17317C0.816467 8.00043 0.618433 10.0111 1.00429 11.9509C1.39014 13.8907 2.34255 15.6725 3.74107 17.0711C5.1396 18.4696 6.92143 19.422 8.86124 19.8079C10.801 20.1937 12.8117 19.9957 14.639 19.2388C16.4662 18.4819 18.028 17.2002 19.1268 15.5557C20.2256 13.9112 20.8121 11.9778 20.8121 10C20.8121 8.68678 20.5535 7.38642 20.0509 6.17317C19.5484 4.95991 18.8118 3.85752 17.8832 2.92893C16.9546 2.00035 15.8522 1.26375 14.639 0.761205C13.4257 0.258658 12.1254 0 10.8121 0ZM10.8121 18C9.22989 18 7.68317 17.5308 6.36758 16.6518C5.05198 15.7727 4.0266 14.5233 3.4211 13.0615C2.8156 11.5997 2.65717 9.99113 2.96586 8.43928C3.27454 6.88743 4.03646 5.46197 5.15528 4.34315C6.2741 3.22433 7.69957 2.4624 9.25142 2.15372C10.8033 1.84504 12.4118 2.00346 13.8736 2.60896C15.3354 3.21447 16.5848 4.23984 17.4639 5.55544C18.3429 6.87103 18.8121 8.41775 18.8121 10C18.8121 12.1217 17.9693 14.1566 16.469 15.6569C14.9687 17.1571 12.9339 18 10.8121 18Z" fill="#FF8B42"/>
<path id="Vector_2" d="M14.8121 9H11.8121V6C11.8121 5.73478 11.7068 5.48043 11.5192 5.29289C11.3317 5.10536 11.0774 5 10.8121 5C10.5469 5 10.2926 5.10536 10.105 5.29289C9.91749 5.48043 9.81213 5.73478 9.81213 6V10C9.81213 10.2652 9.91749 10.5196 10.105 10.7071C10.2926 10.8946 10.5469 11 10.8121 11H14.8121C15.0774 11 15.3317 10.8946 15.5192 10.7071C15.7068 10.5196 15.8121 10.2652 15.8121 10C15.8121 9.73478 15.7068 9.48043 15.5192 9.29289C15.3317 9.10536 15.0774 9 14.8121 9Z" fill="#FF8B42"/>
</g>
</svg>
