<svg width="28" height="32" viewBox="0 0 28 32" fill="none" xmlns="http://www.w3.org/2000/svg">
<g id="icon/solid/doctor" clip-path="url(#clip0_1885_554)">
<path id="Vector" d="M13.6621 15.5325C17.9419 15.5325 21.4105 12.055 21.4105 7.7644C21.4105 3.47376 17.9419 -0.00366211 13.6621 -0.00366211C9.38225 -0.00366211 5.91361 3.47376 5.91361 7.7644C5.91361 12.055 9.38225 15.5325 13.6621 15.5325ZM7.85072 18.8824C3.37114 20.1994 0.102264 24.3504 0.102264 29.2661C0.102264 30.2614 0.907378 31.0686 1.90015 31.0686H25.424C26.4167 31.0686 27.2219 30.2614 27.2219 29.2661C27.2219 24.3504 23.953 20.1994 19.4734 18.8824V21.9654C21.1442 22.3963 22.3791 23.9195 22.3791 25.728V28.1556C22.3791 28.6896 21.9432 29.1266 21.4105 29.1266H20.442C19.9093 29.1266 19.4734 28.6896 19.4734 28.1556C19.4734 27.6215 19.9093 27.1845 20.442 27.1845V25.728C20.442 24.6539 19.5763 23.786 18.5048 23.786C17.4334 23.786 16.5677 24.6539 16.5677 25.728V27.1845C17.1004 27.1845 17.5363 27.6215 17.5363 28.1556C17.5363 28.6896 17.1004 29.1266 16.5677 29.1266H15.5992C15.0665 29.1266 14.6306 28.6896 14.6306 28.1556V25.728C14.6306 23.9195 15.8655 22.3963 17.5363 21.9654V18.5001C17.1731 18.4637 16.8038 18.4455 16.4285 18.4455H10.8956C10.5203 18.4455 10.151 18.4637 9.78784 18.5001V22.4691C11.1862 22.8878 12.2092 24.1866 12.2092 25.728C12.2092 27.6033 10.6898 29.1266 8.81928 29.1266C6.94875 29.1266 5.42933 27.6033 5.42933 25.728C5.42933 24.1866 6.45237 22.8878 7.85072 22.4691V18.8824ZM8.81928 27.1845C9.62439 27.1845 10.2721 26.5352 10.2721 25.728C10.2721 24.9209 9.62439 24.2715 8.81928 24.2715C8.01416 24.2715 7.36644 24.9209 7.36644 25.728C7.36644 26.5352 8.01416 27.1845 8.81928 27.1845Z" fill="white"/>
</g>
<defs>
<clipPath id="clip0_1885_554">
<rect width="27.1196" height="31.0722" fill="white" transform="translate(0.102264 -0.00366211)"/>
</clipPath>
</defs>
</svg>
