<svg width="28" height="27" viewBox="0 0 28 27" fill="none" xmlns="http://www.w3.org/2000/svg">
<path id="Vector" d="M17.7114 2.98131H10.084C9.85099 2.98131 9.6603 3.17503 9.6603 3.41179V5.56419H18.1352V3.41179C18.1352 3.17503 17.9445 2.98131 17.7114 2.98131ZM20.6776 3.41179V5.56419H24.0676C25.9373 5.56419 27.4575 7.10854 27.4575 9.00803V22.7834C27.4575 24.6829 25.9373 26.2272 24.0676 26.2272H3.7279C1.85813 26.2272 0.337952 24.6829 0.337952 22.7834V9.00803C0.337952 7.10854 1.85813 5.56419 3.7279 5.56419H7.11784V3.41179C7.11784 1.74907 8.44734 0.398438 10.084 0.398438H17.7114C19.3481 0.398438 20.6776 1.74907 20.6776 3.41179ZM15.5927 11.5909C15.5927 11.1174 15.2113 10.7299 14.7452 10.7299H13.0502C12.5841 10.7299 12.2028 11.1174 12.2028 11.5909V14.1738H9.6603C9.19419 14.1738 8.81282 14.5612 8.81282 15.0347V16.7567C8.81282 17.2302 9.19419 17.6176 9.6603 17.6176H12.2028V20.2005C12.2028 20.674 12.5841 21.0615 13.0502 21.0615H14.7452C15.2113 21.0615 15.5927 20.674 15.5927 20.2005V17.6176H18.1352C18.6013 17.6176 18.9827 17.2302 18.9827 16.7567V15.0347C18.9827 14.5612 18.6013 14.1738 18.1352 14.1738H15.5927V11.5909Z" fill="#FF8B42"/>
</svg>
