<svg width="18" height="18" viewBox="0 0 18 18" fill="none" xmlns="http://www.w3.org/2000/svg">
<g id="Group">
<path id="Vector" d="M12.15 5.40018C11.3835 5.39755 10.6241 5.54608 9.91511 5.83726C9.20612 6.12844 8.56151 6.55656 8.01816 7.09713C7.4748 7.6377 7.04337 8.2801 6.74855 8.98758C6.45373 9.69506 6.3013 10.4537 6.29999 11.2202V17.1002C6.29999 17.3389 6.39481 17.5678 6.56359 17.7366C6.73237 17.9054 6.96129 18.0002 7.19999 18.0002H9.29999C9.53868 18.0002 9.7676 17.9054 9.93638 17.7366C10.1052 17.5678 10.2 17.3389 10.2 17.1002V11.2202C10.1998 10.9476 10.257 10.678 10.368 10.429C10.479 10.18 10.6412 9.95722 10.8441 9.77512C11.0469 9.59302 11.2859 9.45572 11.5453 9.37216C11.8048 9.28861 12.079 9.26067 12.35 9.29018C12.836 9.3514 13.2826 9.58885 13.6052 9.95749C13.9278 10.3261 14.1038 10.8003 14.1 11.2902V17.1002C14.1 17.3389 14.1948 17.5678 14.3636 17.7366C14.5324 17.9054 14.7613 18.0002 15 18.0002H17.1C17.3387 18.0002 17.5676 17.9054 17.7364 17.7366C17.9052 17.5678 18 17.3389 18 17.1002V11.2202C17.9987 10.4537 17.8462 9.69506 17.5514 8.98758C17.2566 8.2801 16.8252 7.6377 16.2818 7.09713C15.7385 6.55656 15.0939 6.12844 14.3849 5.83726C13.6759 5.54608 12.9164 5.39755 12.15 5.40018Z" fill="white"/>
<path id="Vector_2" d="M3.6 6.30005H0.9C0.402944 6.30005 0 6.70299 0 7.20005V17.1C0 17.5971 0.402944 18 0.9 18H3.6C4.09706 18 4.5 17.5971 4.5 17.1V7.20005C4.5 6.70299 4.09706 6.30005 3.6 6.30005Z" fill="white"/>
<path id="Vector_3" d="M2.25 4.5C3.49264 4.5 4.5 3.49264 4.5 2.25C4.5 1.00736 3.49264 0 2.25 0C1.00736 0 0 1.00736 0 2.25C0 3.49264 1.00736 4.5 2.25 4.5Z" fill="white"/>
</g>
</svg>
