<svg width="24" height="24" viewBox="0 0 24 24" fill="none" xmlns="http://www.w3.org/2000/svg">
<g id="&#240;&#159;&#166;&#134; icon &#34;bookmark&#34;">
<path id="Vector" d="M5.7565 20.435L5.75497 20.4341C5.67774 20.3907 5.61343 20.3276 5.56862 20.2511C5.52388 20.1748 5.50019 20.088 5.49997 19.9995V5.33H5.5001L5.49984 5.31873C5.48929 4.85056 5.66366 4.39708 5.98515 4.05659C6.30478 3.71808 6.74423 3.51834 7.20922 3.5H16.7907C17.2557 3.51834 17.6952 3.71808 18.0148 4.05659C18.3363 4.39708 18.5106 4.85056 18.5001 5.31873L18.5 5.31873V5.33V19.9983C18.4992 20.0851 18.4759 20.1702 18.4322 20.2453C18.3884 20.3207 18.3255 20.3834 18.25 20.427L18.5 20.86L18.25 20.427C18.174 20.4709 18.0877 20.494 18 20.494C17.9122 20.494 17.826 20.4709 17.75 20.427L17.7463 20.4249L12.0763 17.2149L11.8226 17.0712L11.5726 17.2213L6.2426 20.4213L6.24257 20.4213L6.23627 20.4252C6.16321 20.4705 6.07972 20.4963 5.99388 20.4999C5.91062 20.4984 5.82901 20.4761 5.7565 20.435Z" stroke="#273240"/>
</g>
</svg>
