<svg width="24" height="24" viewBox="0 0 24 24" fill="none" xmlns="http://www.w3.org/2000/svg">
<g id="icon/24Px/Solid/arrow down">
<path id="Vector" d="M12 16.0003C11.7663 16.0007 11.5399 15.9194 11.36 15.7703L5.35997 10.7703C5.15575 10.6005 5.02733 10.3566 5.00295 10.0922C4.97857 9.82777 5.06023 9.56449 5.22997 9.36028C5.39971 9.15606 5.64362 9.02763 5.90805 9.00325C6.17247 8.97888 6.43575 9.06054 6.63997 9.23028L12 13.7103L17.36 9.39028C17.4623 9.30721 17.58 9.24518 17.7063 9.20775C17.8326 9.17031 17.9651 9.15822 18.0962 9.17216C18.2272 9.1861 18.3542 9.2258 18.4698 9.28897C18.5854 9.35214 18.6874 9.43755 18.77 9.54028C18.8616 9.6431 18.9309 9.76372 18.9737 9.8946C19.0165 10.0255 19.0318 10.1638 19.0187 10.3008C19.0055 10.4379 18.9642 10.5708 18.8973 10.6911C18.8304 10.8115 18.7394 10.9167 18.63 11.0003L12.63 15.8303C12.4449 15.9558 12.2231 16.0156 12 16.0003Z" fill="white"/>
</g>
</svg>
