<svg width="24" height="24" viewBox="0 0 24 24" fill="none" xmlns="http://www.w3.org/2000/svg">
<g id="icon/24Px/Solid/arrow down">
<path id="Vector" d="M7.99997 12C7.99951 11.7663 8.08089 11.5399 8.22997 11.36L13.23 5.35997C13.3997 5.15575 13.6436 5.02733 13.908 5.00295C14.1725 4.97857 14.4358 5.06023 14.64 5.22997C14.8442 5.39971 14.9726 5.64362 14.997 5.90805C15.0214 6.17247 14.9397 6.43575 14.77 6.63997L10.29 12L14.61 17.36C14.693 17.4623 14.7551 17.58 14.7925 17.7063C14.8299 17.8326 14.842 17.9651 14.8281 18.0962C14.8141 18.2272 14.7744 18.3542 14.7113 18.4698C14.6481 18.5854 14.5627 18.6874 14.46 18.77C14.3571 18.8616 14.2365 18.9309 14.1056 18.9737C13.9748 19.0165 13.8365 19.0318 13.6994 19.0187C13.5623 19.0055 13.4295 18.9642 13.3091 18.8973C13.1888 18.8304 13.0835 18.7394 13 18.63L8.16997 12.63C8.04445 12.4449 7.9846 12.2231 7.99997 12Z" fill="white"/>
</g>
</svg>
