<svg width="97" height="98" viewBox="0 0 97 98" fill="none" xmlns="http://www.w3.org/2000/svg">
<g id="icon/24px/Solid/Award Cup">
<path id="Vector" fill-rule="evenodd" clip-rule="evenodd" d="M24.25 14.2917C24.25 13.7502 24.4629 13.2309 24.8419 12.848C25.2209 12.4651 25.7349 12.25 26.2708 12.25H70.7292C71.2651 12.25 71.7791 12.4651 72.1581 12.848C72.5371 13.2309 72.75 13.7502 72.75 14.2917V16.3333H82.8542C83.3901 16.3333 83.9041 16.5484 84.2831 16.9313C84.6621 17.3142 84.875 17.8335 84.875 18.375V30.625C84.875 33.3324 83.8105 35.9289 81.9156 37.8434C80.0207 39.7578 77.4506 40.8333 74.7708 40.8333H71.3698C69.9253 44.9516 67.4186 48.6055 64.1086 51.4173C60.7985 54.2292 56.8054 56.097 52.5417 56.8278V69.4167H64.6667C65.2026 69.4167 65.7166 69.6318 66.0956 70.0147C66.4746 70.3975 66.6875 70.9169 66.6875 71.4583V83.7083C66.6875 84.2498 66.4746 84.7691 66.0956 85.152C65.7166 85.5349 65.2026 85.75 64.6667 85.75H32.3333C31.7974 85.75 31.2834 85.5349 30.9044 85.152C30.5254 84.7691 30.3125 84.2498 30.3125 83.7083V71.4583C30.3125 70.9169 30.5254 70.3975 30.9044 70.0147C31.2834 69.6318 31.7974 69.4167 32.3333 69.4167H44.4583V56.8278C40.1946 56.097 36.2015 54.2292 32.8914 51.4173C29.5814 48.6055 27.0747 44.9516 25.6302 40.8333H22.2292C19.5494 40.8333 16.9793 39.7578 15.0844 37.8434C13.1895 35.9289 12.125 33.3324 12.125 30.625V18.375C12.125 17.8335 12.3379 17.3142 12.7169 16.9313C13.0959 16.5484 13.6099 16.3333 14.1458 16.3333H24.25V14.2917ZM72.75 32.6667V20.4167H80.8333V30.625C80.8333 32.2495 80.1946 33.8074 79.0577 34.956C77.9207 36.1047 76.3787 36.75 74.7708 36.75H72.75V32.6667ZM24.25 20.4167H16.1667V30.625C16.1667 32.2495 16.8054 33.8074 17.9423 34.956C19.0793 36.1047 20.6213 36.75 22.2292 36.75H24.25V20.4167Z" fill="white"/>
</g>
</svg>
