<svg width="19" height="20" viewBox="0 0 19 20" fill="none" xmlns="http://www.w3.org/2000/svg">
<g id="Group">
<path id="Vector" d="M15.8121 2H14.8121V1C14.8121 0.734784 14.7068 0.48043 14.5192 0.292893C14.3317 0.105357 14.0774 0 13.8121 0C13.5469 0 13.2926 0.105357 13.105 0.292893C12.9175 0.48043 12.8121 0.734784 12.8121 1V2H6.81214V1C6.81214 0.734784 6.70678 0.48043 6.51924 0.292893C6.33171 0.105357 6.07735 0 5.81214 0C5.54692 0 5.29257 0.105357 5.10503 0.292893C4.91749 0.48043 4.81214 0.734784 4.81214 1V2H3.81214C3.01649 2 2.25342 2.31607 1.69082 2.87868C1.12821 3.44129 0.812136 4.20435 0.812136 5V17C0.812136 17.7956 1.12821 18.5587 1.69082 19.1213C2.25342 19.6839 3.01649 20 3.81214 20H15.8121C16.6078 20 17.3708 19.6839 17.9335 19.1213C18.4961 18.5587 18.8121 17.7956 18.8121 17V5C18.8121 4.20435 18.4961 3.44129 17.9335 2.87868C17.3708 2.31607 16.6078 2 15.8121 2ZM3.81214 4H4.81214V5C4.81214 5.26522 4.91749 5.51957 5.10503 5.70711C5.29257 5.89464 5.54692 6 5.81214 6C6.07735 6 6.33171 5.89464 6.51924 5.70711C6.70678 5.51957 6.81214 5.26522 6.81214 5V4H12.8121V5C12.8121 5.26522 12.9175 5.51957 13.105 5.70711C13.2926 5.89464 13.5469 6 13.8121 6C14.0774 6 14.3317 5.89464 14.5192 5.70711C14.7068 5.51957 14.8121 5.26522 14.8121 5V4H15.8121C16.0774 4 16.3317 4.10536 16.5192 4.29289C16.7068 4.48043 16.8121 4.73478 16.8121 5V9H2.81214V5C2.81214 4.73478 2.91749 4.48043 3.10503 4.29289C3.29257 4.10536 3.54692 4 3.81214 4ZM15.8121 18H3.81214C3.54692 18 3.29257 17.8946 3.10503 17.7071C2.91749 17.5196 2.81214 17.2652 2.81214 17V11H16.8121V17C16.8121 17.2652 16.7068 17.5196 16.5192 17.7071C16.3317 17.8946 16.0774 18 15.8121 18Z" fill="#FF8B42"/>
<path id="Vector_2" d="M5.81213 15C6.36442 15 6.81213 14.5523 6.81213 14C6.81213 13.4477 6.36442 13 5.81213 13C5.25985 13 4.81213 13.4477 4.81213 14C4.81213 14.5523 5.25985 15 5.81213 15Z" fill="#FF8B42"/>
<path id="Vector_3" d="M13.8121 13H9.81214C9.54692 13 9.29257 13.1054 9.10503 13.2929C8.91749 13.4804 8.81214 13.7348 8.81214 14C8.81214 14.2652 8.91749 14.5196 9.10503 14.7071C9.29257 14.8946 9.54692 15 9.81214 15H13.8121C14.0774 15 14.3317 14.8946 14.5192 14.7071C14.7068 14.5196 14.8121 14.2652 14.8121 14C14.8121 13.7348 14.7068 13.4804 14.5192 13.2929C14.3317 13.1054 14.0774 13 13.8121 13Z" fill="#FF8B42"/>
</g>
</svg>
