<svg width="97" height="112" viewBox="0 0 97 112" fill="none" xmlns="http://www.w3.org/2000/svg">
<g id="icon/solid/doctor" clip-path="url(#clip0_1_738)">
<path id="Vector" d="M48.5 56C63.8078 56 76.2143 43.4656 76.2143 28C76.2143 12.5344 63.8078 0 48.5 0C33.1922 0 20.7857 12.5344 20.7857 28C20.7857 43.4656 33.1922 56 48.5 56ZM27.7143 68.075C11.692 72.8219 0 87.7844 0 105.503C0 109.091 2.87969 112 6.43058 112H90.5694C94.1203 112 97 109.091 97 105.503C97 87.7844 85.308 72.8219 69.2857 68.075V79.1875C75.2616 80.7406 79.6786 86.2312 79.6786 92.75V101.5C79.6786 103.425 78.1196 105 76.2143 105H72.75C70.8446 105 69.2857 103.425 69.2857 101.5C69.2857 99.575 70.8446 98 72.75 98V92.75C72.75 88.8781 69.6538 85.75 65.8214 85.75C61.9891 85.75 58.8929 88.8781 58.8929 92.75V98C60.7982 98 62.3571 99.575 62.3571 101.5C62.3571 103.425 60.7982 105 58.8929 105H55.4286C53.5232 105 51.9643 103.425 51.9643 101.5V92.75C51.9643 86.2312 56.3812 80.7406 62.3571 79.1875V66.6969C61.058 66.5656 59.7373 66.5 58.3949 66.5H38.6051C37.2627 66.5 35.942 66.5656 34.6429 66.6969V81.0031C39.6444 82.5125 43.3036 87.1937 43.3036 92.75C43.3036 99.5094 37.869 105 31.1786 105C24.4882 105 19.0536 99.5094 19.0536 92.75C19.0536 87.1937 22.7127 82.5125 27.7143 81.0031V68.075ZM31.1786 98C34.0583 98 36.375 95.6594 36.375 92.75C36.375 89.8406 34.0583 87.5 31.1786 87.5C28.2989 87.5 25.9821 89.8406 25.9821 92.75C25.9821 95.6594 28.2989 98 31.1786 98Z" fill="white"/>
</g>
<defs>
<clipPath id="clip0_1_738">
<rect width="97" height="112" fill="white"/>
</clipPath>
</defs>
</svg>
