<svg width="97" height="98" viewBox="0 0 97 98" fill="none" xmlns="http://www.w3.org/2000/svg">
<g id="icon/24px/solid/happy" clip-path="url(#clip0_1_734)">
<path id="Vector" d="M48.5 5.44446C39.9734 5.44446 31.6383 7.99895 24.5487 12.7849C17.4591 17.5708 11.9335 24.3733 8.67051 32.332C5.40753 40.2908 4.55379 49.0483 6.21724 57.4973C7.88069 65.9462 11.9866 73.7071 18.0158 79.7984C24.045 85.8898 31.7267 90.0381 40.0894 91.7187C48.4522 93.3993 57.1204 92.5367 64.9979 89.2401C72.8754 85.9435 79.6085 80.3609 84.3456 73.1982C89.0827 66.0355 91.6111 57.6145 91.6111 49C91.6111 37.4484 87.069 26.3698 78.9841 18.2016C70.8992 10.0333 59.9338 5.44446 48.5 5.44446ZM23.9536 37.8117C23.9536 36.7349 24.2696 35.6822 24.8618 34.7869C25.4539 33.8916 26.2956 33.1937 27.2802 32.7817C28.2649 32.3696 29.3485 32.2618 30.3938 32.4718C31.4391 32.6819 32.3994 33.2005 33.153 33.9619C33.9067 34.7233 34.4199 35.6934 34.6278 36.7495C34.8358 37.8056 34.729 38.9003 34.3212 39.8952C33.9133 40.89 33.2226 41.7403 32.3364 42.3386C31.4502 42.9368 30.4083 43.2561 29.3425 43.2561C27.9133 43.2561 26.5426 42.6825 25.532 41.6615C24.5214 40.6404 23.9536 39.2556 23.9536 37.8117ZM48.8503 76.7939C43.9073 76.8004 39.0896 75.2227 35.0904 72.2878C31.0911 69.3528 28.1164 65.2118 26.5942 60.4606H71.0794C69.5586 65.2074 66.588 69.3452 62.5941 72.2798C58.6003 75.2143 53.7887 76.7947 48.8503 76.7939ZM67.5228 43.2561C66.4569 43.2561 65.4151 42.9368 64.5289 42.3386C63.6427 41.7403 62.9519 40.89 62.5441 39.8952C62.1362 38.9003 62.0295 37.8056 62.2374 36.7495C62.4453 35.6934 62.9586 34.7233 63.7122 33.9619C64.4659 33.2005 65.4261 32.6819 66.4714 32.4718C67.5168 32.2618 68.6003 32.3696 69.585 32.7817C70.5697 33.1937 71.4113 33.8916 72.0035 34.7869C72.5956 35.6822 72.9116 36.7349 72.9116 37.8117C72.9117 38.5289 72.7714 39.2392 72.4989 39.9015C72.2264 40.5638 71.827 41.1652 71.3238 41.6711C70.8205 42.1771 70.2233 42.5775 69.5663 42.8495C68.9094 43.1215 68.2058 43.2597 67.4958 43.2561H67.5228Z" fill="white"/>
</g>
<defs>
<clipPath id="clip0_1_734">
<rect width="97" height="98" fill="white"/>
</clipPath>
</defs>
</svg>
