<svg width="17" height="17" viewBox="0 0 17 17" fill="none" xmlns="http://www.w3.org/2000/svg">
<g id="Group">
<path id="Vector" d="M2.5 14C2.5 13.7348 2.39464 13.4804 2.20711 13.2929C2.01957 13.1054 1.76522 13 1.5 13C1.23478 13 0.98043 13.1054 0.792893 13.2929C0.605357 13.4804 0.5 13.7348 0.5 14L0.5 16C0.5 16.2652 0.605357 16.5196 0.792893 16.7071C0.98043 16.8946 1.23478 17 1.5 17L15.5 17C15.7652 17 16.0196 16.8946 16.2071 16.7071C16.3946 16.5196 16.5 16.2652 16.5 16L16.5 14C16.5 13.7348 16.3946 13.4804 16.2071 13.2929C16.0196 13.1054 15.7652 13 15.5 13C15.2348 13 14.9804 13.1054 14.7929 13.2929C14.6054 13.4804 14.5 13.7348 14.5 14L14.5 15L2.5 15L2.5 14Z" fill="white"/>
<path id="Vector_2" d="M7.91995 0.18L3.91995 3C3.70436 3.15294 3.55809 3.385 3.51312 3.64548C3.46815 3.90595 3.52813 4.17363 3.67995 4.39C3.75574 4.49815 3.85219 4.59022 3.96376 4.66089C4.07532 4.73157 4.19977 4.77944 4.32994 4.80176C4.4601 4.82407 4.59339 4.82038 4.72212 4.7909C4.85085 4.76142 4.97247 4.70673 5.07995 4.63L7.49995 2.91L7.49995 3L7.49995 11C7.49995 11.2652 7.60531 11.5196 7.79284 11.7071C7.98038 11.8946 8.23473 12 8.49995 12C8.76517 12 9.01952 11.8946 9.20706 11.7071C9.39459 11.5196 9.49995 11.2652 9.49995 11L9.49995 3L11.8999 4.8C12.005 4.87879 12.1246 4.93612 12.2518 4.96871C12.379 5.00131 12.5114 5.00852 12.6414 4.98995C12.7714 4.97138 12.8964 4.92738 13.0094 4.86047C13.1224 4.79357 13.2212 4.70506 13.2999 4.6C13.4298 4.4269 13.5 4.21637 13.5 4C13.5 3.84475 13.4638 3.69164 13.3944 3.55279C13.3249 3.41393 13.2241 3.29315 13.1 3.2L9.09995 0.200001C8.93082 0.0719287 8.72534 0.00096489 8.51322 -0.00263045C8.30109 -0.0062258 8.09333 0.0577333 7.91995 0.18Z" fill="white"/>
</g>
</svg>
